<svg width="29" height="27" viewBox="0 0 29 27" fill="none" xmlns="http://www.w3.org/2000/svg">
<path d="M13.5967 0.846436C13.7457 0.384541 14.3988 0.384536 14.5479 0.846436L17.1699 8.97437C17.3701 9.59514 17.9483 10.0158 18.6006 10.0144L27.1406 9.99585C27.626 9.99481 27.8278 10.6156 27.4346 10.9001L20.5146 15.905C19.9861 16.2873 19.7649 16.9678 19.9678 17.5876L22.625 25.7039C22.776 26.1652 22.2466 26.5496 21.8545 26.2634L14.957 21.2283C14.4302 20.8437 13.7143 20.8437 13.1875 21.2283L6.29004 26.2634C5.89791 26.5496 5.36851 26.1652 5.51953 25.7039L8.17676 17.5876C8.37967 16.9678 8.15841 16.2873 7.62988 15.905L0.709961 10.9001C0.316748 10.6156 0.518493 9.99481 1.00391 9.99585L9.54395 10.0144C10.1962 10.0158 10.7744 9.59513 10.9746 8.97437L13.5967 0.846436Z" stroke="#D9D9D9"/>
</svg>
