<svg width="29" height="27" viewBox="0 0 29 27" fill="none" xmlns="http://www.w3.org/2000/svg">
<path d="M13.1205 0.692995C13.4186 -0.231088 14.726 -0.231085 15.024 0.692998L17.6453 8.82104C17.7788 9.23489 18.1644 9.51505 18.5992 9.5141L27.1395 9.49543C28.1105 9.49331 28.5145 10.7367 27.7277 11.3057L20.8075 16.3105C20.4552 16.5653 20.3079 17.0186 20.4432 17.4319L23.1 25.5484C23.4021 26.4711 22.3443 27.2396 21.5601 26.6672L14.6618 21.6322C14.3106 21.3759 13.8339 21.3759 13.4827 21.6322L6.58447 26.6672C5.8002 27.2396 4.74248 26.4711 5.04454 25.5484L7.70138 17.4319C7.83665 17.0186 7.68936 16.5653 7.33701 16.3105L0.416821 11.3057C-0.369941 10.7367 0.0340755 9.49331 1.00502 9.49543L9.54529 9.5141C9.98013 9.51505 10.3657 9.23489 10.4992 8.82104L13.1205 0.692995Z" fill="#FFEDA5"/>
</svg>
