<svg width="32" height="32" viewBox="0 0 32 32" fill="none" xmlns="http://www.w3.org/2000/svg">
<path d="M20.4721 2.77334L19.1202 4.12522L6.69374 16.5502C5.85229 17.3931 5.43083 17.8146 5.06916 18.2783C4.64244 18.8259 4.27621 19.418 3.97687 20.0444C3.72458 20.5752 3.53645 21.1411 3.1602 22.2698L1.56479 27.0546L1.17395 28.2242C1.08253 28.4968 1.06897 28.7895 1.13479 29.0694C1.2006 29.3494 1.34319 29.6054 1.54651 29.8087C1.74984 30.012 2.00585 30.1546 2.28577 30.2204C2.56568 30.2862 2.85841 30.2727 3.13104 30.1813L4.30062 29.7904L9.08541 28.195C10.2156 27.8188 10.78 27.6306 11.3108 27.3783C11.9399 27.0789 12.5285 26.7148 13.0769 26.2861C13.5406 25.9244 13.9621 25.5029 14.8035 24.6615L27.23 12.235L28.5819 10.8831C29.6573 9.80771 30.2615 8.34912 30.2615 6.82824C30.2615 5.30736 29.6573 3.84877 28.5819 2.77334C27.5064 1.69792 26.0479 1.09375 24.527 1.09375C23.0061 1.09375 21.5475 1.69792 20.4721 2.77334Z" stroke="#999999" stroke-width="2.1875"/>
<path opacity="0.5" d="M19.1179 4.12402C19.1179 4.12402 19.2871 6.99694 21.8217 9.53152C24.3563 12.0661 27.2277 12.2338 27.2277 12.2338M4.29833 29.7907L1.5625 27.0549" stroke="#999999" stroke-width="2.1875"/>
</svg>
