<svg width="33" height="33" viewBox="0 0 33 33" fill="none" xmlns="http://www.w3.org/2000/svg">
<path d="M31.24 31.24L21.16 21.16M1 12.76C1 14.3043 1.30418 15.8336 1.89518 17.2604C2.48617 18.6871 3.35241 19.9836 4.44442 21.0756C5.53644 22.1676 6.83285 23.0338 8.25964 23.6248C9.68643 24.2158 11.2157 24.52 12.76 24.52C14.3043 24.52 15.8336 24.2158 17.2604 23.6248C18.6871 23.0338 19.9836 22.1676 21.0756 21.0756C22.1676 19.9836 23.0338 18.6871 23.6248 17.2604C24.2158 15.8336 24.52 14.3043 24.52 12.76C24.52 11.2157 24.2158 9.68643 23.6248 8.25964C23.0338 6.83285 22.1676 5.53644 21.0756 4.44442C19.9836 3.35241 18.6871 2.48617 17.2604 1.89518C15.8336 1.30418 14.3043 1 12.76 1C11.2157 1 9.68643 1.30418 8.25964 1.89518C6.83285 2.48617 5.53644 3.35241 4.44442 4.44442C3.35241 5.53644 2.48617 6.83285 1.89518 8.25964C1.30418 9.68643 1 11.2157 1 12.76Z" stroke="#999999" stroke-width="2" stroke-linecap="round" stroke-linejoin="round"/>
</svg>
